<?xml version="1.0" encoding="UTF-8" standalone="no"?>
<!-- Generator: Adobe Illustrator 23.0.0, SVG Export Plug-In . SVG Version: 6.00 Build 0)  -->

<svg
   version="1.1"
   x="0px"
   y="0px"
   viewBox="0 0 1594 870"
   style="enable-background:new 0 0 1594 870;"
   xml:space="preserve"
   id="svg108"
   sodipodi:docname="logo_v2.svg"
   inkscape:version="1.1.2 (b8e25be833, 2022-02-05)"
   xmlns:inkscape="http://www.inkscape.org/namespaces/inkscape"
   xmlns:sodipodi="http://sodipodi.sourceforge.net/DTD/sodipodi-0.dtd"
   xmlns="http://www.w3.org/2000/svg"
   xmlns:svg="http://www.w3.org/2000/svg"><sodipodi:namedview
   id="namedview58"
   pagecolor="#ffffff"
   bordercolor="#666666"
   borderopacity="1.0"
   inkscape:pageshadow="2"
   inkscape:pageopacity="0.0"
   inkscape:pagecheckerboard="0"
   showgrid="false"
   inkscape:zoom="1.6072773"
   inkscape:cx="519.82319"
   inkscape:cy="226.15886"
   inkscape:window-width="2560"
   inkscape:window-height="1361"
   inkscape:window-x="-9"
   inkscape:window-y="-9"
   inkscape:window-maximized="1"
   inkscape:current-layer="svg108" /><defs
   id="defs112" />
<style
   type="text/css"
   id="style2">
	.st0{fill:#FF0000;}
	.st1{fill:#FFFFFF;}
</style>
<g
   id="Layer_1">
</g>
<g
   id="Layer_2"
   transform="matrix(1.3570576,0,0,1.3722387,-299.19367,-770.20944)">
	<g
   id="g105">
		<g
   id="g25">
			<path
   d="m 401.8,592.3 c 0.6,0.2 1.2,0.5 1.6,0.8 0.4,0.3 0.8,0.6 1,1 0.3,0.4 0.5,0.8 0.6,1.2 0.2,0.5 0.3,0.9 0.5,1.5 l 2.3,8.5 c 0,0.1 0.1,0.3 0,0.5 0,0.2 -0.2,0.3 -0.5,0.3 H 403 c -0.1,0 -0.3,0 -0.4,-0.1 -0.1,0 -0.3,-0.2 -0.3,-0.4 l -2.2,-7.9 c -0.2,-0.6 -0.4,-1.2 -0.7,-1.6 -0.3,-0.4 -0.6,-0.7 -0.9,-0.9 -0.4,-0.2 -0.8,-0.4 -1.3,-0.5 -0.5,-0.1 -1.1,-0.1 -1.7,-0.1 h -3 v 10.9 c 0,0.3 0,0.4 -0.1,0.5 -0.1,0.1 -0.3,0.1 -0.5,0.1 h -4.3 c -0.2,0 -0.4,0 -0.5,-0.1 -0.1,-0.1 -0.2,-0.2 -0.2,-0.5 V 581 c 0,-0.3 0.1,-0.4 0.2,-0.5 0.1,-0.1 0.3,-0.1 0.5,-0.1 h 4.3 c 0.2,0 0.4,0 0.5,0.1 0.1,0.1 0.1,0.2 0.1,0.5 v 9.4 h 2.9 c 0.4,0 0.8,0 1.2,-0.1 0.4,-0.1 0.8,-0.2 1.2,-0.4 0.4,-0.2 0.8,-0.6 1.1,-1 0.3,-0.4 0.6,-1 0.8,-1.8 l 1.7,-6.2 c 0,-0.2 0.2,-0.4 0.3,-0.4 0.2,0 0.3,-0.1 0.4,-0.1 h 4.1 c 0.3,0 0.5,0.1 0.5,0.3 0,0.2 0,0.3 0,0.5 l -1.7,6.6 c -0.5,2.1 -1.5,3.6 -3.1,4.6 v -0.1 z"
   id="path5" />
			<path
   d="m 434.6,593 c 0,2.1 -0.2,4 -0.7,5.6 -0.5,1.6 -1.2,3 -2.1,4.2 -1,1.2 -2.2,2 -3.6,2.6 -1.4,0.6 -3.2,0.9 -5.1,0.9 -3.8,0 -6.6,-1.1 -8.5,-3.4 -1.8,-2.3 -2.8,-5.6 -2.8,-9.8 0,-2.1 0.3,-3.9 0.8,-5.6 0.5,-1.7 1.3,-3 2.3,-4.2 1,-1.1 2.2,-2 3.6,-2.6 1.4,-0.6 3,-0.9 4.7,-0.9 1.9,0 3.6,0.3 5,0.9 1.4,0.6 2.6,1.5 3.6,2.6 0.9,1.1 1.7,2.5 2.1,4.1 0.4,1.8 0.7,3.6 0.7,5.6 z m -5.9,0.1 c 0,-1.1 -0.1,-2.2 -0.2,-3.2 -0.2,-1 -0.4,-1.9 -0.9,-2.6 -0.4,-0.8 -1,-1.4 -1.7,-1.8 -0.7,-0.5 -1.6,-0.7 -2.8,-0.7 -0.9,0 -1.7,0.2 -2.4,0.6 -0.7,0.4 -1.3,1 -1.7,1.7 -0.5,0.7 -0.8,1.6 -1,2.6 -0.2,1 -0.3,2 -0.3,3.1 0,1.3 0.1,2.5 0.3,3.5 0.2,1 0.5,1.9 0.9,2.6 0.4,0.7 1,1.3 1.7,1.7 0.7,0.4 1.6,0.6 2.7,0.6 1.1,0 1.9,-0.2 2.6,-0.7 0.7,-0.5 1.3,-1.1 1.7,-1.8 0.4,-0.7 0.7,-1.6 0.9,-2.6 0.1,-0.9 0.2,-1.9 0.2,-3 z"
   id="path7" />
			<path
   d="m 461.4,591.2 h -0.2 l -1.5,3.4 -3,6.8 c -0.3,0.6 -0.5,1.1 -0.8,1.3 -0.3,0.2 -0.7,0.3 -1.3,0.3 h -2 c -0.6,0 -1,-0.1 -1.3,-0.3 -0.2,-0.2 -0.5,-0.6 -0.8,-1.3 l -2.3,-4.8 -2.3,-5 h -0.2 v 13.6 c 0,0.3 -0.1,0.6 -0.2,0.6 -0.1,0.1 -0.3,0.1 -0.7,0.1 h -3.7 c -0.3,0 -0.5,0 -0.6,-0.1 -0.1,-0.1 -0.2,-0.3 -0.2,-0.6 v -22.4 c 0,-0.9 0.2,-1.6 0.5,-2 0.4,-0.4 1,-0.6 1.8,-0.6 h 2.1 c 0.7,0 1.2,0.1 1.5,0.4 0.3,0.3 0.6,0.7 0.9,1.3 l 4,9 2.3,5.2 h 0.1 l 2.5,-5.7 3.7,-8.4 c 0.3,-0.7 0.6,-1.1 1,-1.4 0.4,-0.3 0.9,-0.4 1.7,-0.4 h 1.8 c 0.8,0 1.4,0.2 1.8,0.5 0.4,0.3 0.6,1 0.6,1.9 v 22.6 c 0,0.3 -0.1,0.6 -0.2,0.6 -0.1,0.1 -0.3,0.1 -0.7,0.1 H 462 c -0.3,0 -0.5,0 -0.6,-0.1 -0.1,-0.1 -0.2,-0.3 -0.2,-0.6 v -14 z"
   id="path9" />
			<path
   d="m 494.2,605.2 c 0,0.3 0,0.5 -0.1,0.6 -0.1,0.1 -0.3,0.1 -0.7,0.1 h -4 c -0.5,0 -0.8,-0.2 -0.8,-0.7 v -20.1 h -9.9 v 20.1 c 0,0.3 0,0.5 -0.1,0.6 -0.1,0.1 -0.3,0.1 -0.7,0.1 h -4 c -0.5,0 -0.8,-0.2 -0.8,-0.7 v -22.5 c 0,-0.9 0.2,-1.5 0.5,-1.9 0.4,-0.4 1,-0.6 1.8,-0.6 h 16.4 c 0.9,0 1.5,0.2 1.8,0.6 0.3,0.4 0.5,1 0.5,1.9 v 22.5 z"
   id="path11" />
			<path
   d="m 514.1,600.6 h -8.4 l -1.4,4.7 c -0.1,0.2 -0.2,0.4 -0.3,0.5 -0.1,0.1 -0.4,0.2 -0.7,0.2 H 499 c -0.3,0 -0.4,-0.1 -0.5,-0.2 -0.1,-0.1 -0.1,-0.3 0,-0.5 l 7.6,-23 c 0.1,-0.4 0.3,-0.8 0.4,-1 0.2,-0.3 0.3,-0.5 0.6,-0.6 0.2,-0.1 0.5,-0.2 0.7,-0.3 0.3,-0.1 0.6,-0.1 1,-0.1 h 2.2 c 0.4,0 0.8,0 1.1,0.1 0.3,0 0.5,0.1 0.8,0.3 0.2,0.1 0.4,0.4 0.6,0.6 0.2,0.3 0.3,0.6 0.5,1.1 l 7.6,23 c 0,0.1 0,0.3 0,0.5 0,0.2 -0.2,0.3 -0.5,0.3 h -4.4 c -0.3,0 -0.5,0 -0.7,-0.1 -0.2,-0.1 -0.3,-0.2 -0.4,-0.5 z m -7.1,-4.5 h 5.8 l -1.4,-4.7 -1.4,-5.3 h -0.2 l -1.4,5.3 z"
   id="path13" />
			<path
   d="m 546.6,605.8 c -0.1,0.1 -0.3,0.1 -0.7,0.1 H 542 c -0.3,0 -0.5,-0.1 -0.7,-0.2 -0.1,-0.1 -0.2,-0.3 -0.2,-0.6 v -10.3 h -9.9 v 10.3 c 0,0.3 -0.1,0.5 -0.2,0.6 -0.1,0.1 -0.3,0.1 -0.7,0.1 h -3.9 c -0.3,0 -0.5,-0.1 -0.6,-0.2 -0.1,-0.1 -0.2,-0.3 -0.2,-0.6 v -24 c 0,-0.3 0.1,-0.5 0.2,-0.6 0.1,-0.1 0.3,-0.2 0.6,-0.2 h 3.9 c 0.4,0 0.6,0 0.7,0.1 0.1,0.1 0.2,0.3 0.2,0.6 v 9.1 h 9.9 v -9 c 0,-0.3 0.1,-0.5 0.2,-0.6 0.1,-0.1 0.3,-0.2 0.7,-0.2 h 3.9 c 0.4,0 0.6,0 0.7,0.1 0.1,0.1 0.2,0.3 0.2,0.6 V 605 c -0.1,0.5 -0.1,0.7 -0.2,0.8 z"
   id="path15" />
			<path
   d="m 569.2,588.8 -3.3,5.5 -6.2,10.1 c -0.2,0.3 -0.4,0.6 -0.6,0.8 -0.2,0.2 -0.4,0.4 -0.6,0.5 -0.2,0.1 -0.4,0.2 -0.7,0.2 -0.3,0 -0.6,0.1 -0.9,0.1 h -1.5 c -1,0 -1.6,-0.2 -1.9,-0.7 -0.3,-0.5 -0.5,-1.1 -0.5,-1.9 v -22.5 c 0,-0.5 0.3,-0.7 0.8,-0.7 h 3.9 c 0.3,0 0.6,0 0.6,0.1 0.1,0.1 0.1,0.3 0.1,0.6 v 16.5 h 0.2 l 3.1,-5.1 6.3,-10.4 c 0.2,-0.3 0.4,-0.6 0.6,-0.8 0.2,-0.2 0.4,-0.4 0.6,-0.5 0.2,-0.1 0.4,-0.2 0.7,-0.2 0.2,0 0.6,-0.1 0.9,-0.1 h 1.5 c 0.9,0 1.5,0.2 1.9,0.6 0.3,0.4 0.5,1 0.5,2 v 22.5 c 0,0.5 -0.3,0.7 -0.8,0.7 H 570 c -0.3,0 -0.6,0 -0.7,-0.1 -0.1,-0.1 -0.1,-0.3 -0.1,-0.6 v -16.5 0 z"
   id="path17" />
			<path
   d="m 594.9,595.6 h -3.4 c -1.1,0 -2,0.2 -2.6,0.7 -0.6,0.5 -1.1,1.3 -1.4,2.5 -0.1,0.3 -0.2,0.8 -0.4,1.4 -0.1,0.6 -0.3,1.2 -0.5,1.8 -0.2,0.6 -0.3,1.2 -0.5,1.8 -0.1,0.6 -0.3,1.1 -0.3,1.4 -0.1,0.4 -0.3,0.6 -0.6,0.6 -0.3,0.1 -0.6,0.1 -0.9,0.1 h -4 c -0.4,0 -0.6,-0.1 -0.6,-0.4 0,-0.1 0,-0.2 0.1,-0.4 l 1.9,-7.1 c 0.2,-0.9 0.6,-1.7 1,-2.3 0.5,-0.6 1.2,-1.1 2.3,-1.4 v -0.1 c -1.4,-0.5 -2.5,-1.3 -3.1,-2.5 -0.6,-1.1 -1,-2.4 -1,-3.8 0,-1.1 0.2,-2.2 0.6,-3.1 0.4,-0.9 0.9,-1.7 1.6,-2.4 0.7,-0.7 1.6,-1.2 2.6,-1.6 1.1,-0.4 2.2,-0.6 3.6,-0.6 h 9 c 0.9,0 1.5,0.2 1.8,0.6 0.3,0.4 0.4,0.9 0.4,1.7 v 22.8 c 0,0.3 -0.1,0.4 -0.2,0.5 -0.1,0.1 -0.3,0.1 -0.6,0.1 h -4.1 c -0.3,0 -0.6,0 -0.7,-0.1 -0.1,-0.1 -0.1,-0.2 -0.1,-0.5 v -9.7 z m -8.2,-7.5 c 0,0.9 0.3,1.6 0.8,2.1 0.6,0.5 1.4,0.8 2.5,0.8 h 4.9 v -5.9 h -5 c -0.6,0 -1.2,0.1 -1.6,0.3 -0.4,0.2 -0.7,0.4 -1,0.7 -0.2,0.3 -0.4,0.6 -0.5,1 0,0.4 -0.1,0.7 -0.1,1 z"
   id="path19" />
			<path
   class="st0"
   d="m 618,587.3 c 0,-1 0.2,-2 0.5,-2.9 0.4,-0.9 0.9,-1.7 1.6,-2.4 0.7,-0.7 1.6,-1.2 2.7,-1.6 1.1,-0.4 2.4,-0.6 3.9,-0.6 0.7,0 1.4,0 2.1,0.1 0.7,0.1 1.5,0.2 2.2,0.3 0.7,0.1 1.4,0.3 2.1,0.5 0.7,0.2 1.3,0.4 1.8,0.7 0.3,0.1 0.5,0.3 0.5,0.4 0,0.1 0,0.4 -0.1,0.8 l -1,2.8 c -0.1,0.3 -0.2,0.5 -0.4,0.6 -0.1,0 -0.3,0 -0.6,0 -1.2,-0.3 -2.3,-0.6 -3.4,-0.8 -1.1,-0.2 -2.2,-0.3 -3.2,-0.3 -1.1,0 -1.8,0.2 -2.3,0.6 -0.4,0.4 -0.7,0.9 -0.7,1.4 0,0.3 0.1,0.6 0.2,0.9 0.1,0.3 0.4,0.5 0.7,0.8 0.3,0.3 0.8,0.5 1.3,0.8 0.5,0.3 1.2,0.6 2,0.9 1.2,0.5 2.4,1 3.5,1.5 1.1,0.5 2,1.1 2.7,1.7 0.7,0.6 1.3,1.4 1.8,2.2 0.4,0.9 0.6,1.9 0.6,3.1 0,1.3 -0.2,2.4 -0.7,3.4 -0.5,1 -1.1,1.7 -1.9,2.4 -0.8,0.6 -1.8,1.1 -3,1.4 -1.2,0.3 -2.5,0.5 -3.9,0.5 -0.8,0 -1.6,0 -2.5,-0.1 -0.9,-0.1 -1.7,-0.2 -2.5,-0.4 -0.8,-0.2 -1.7,-0.4 -2.5,-0.7 -0.8,-0.3 -1.6,-0.6 -2.2,-1.1 -0.2,-0.1 -0.3,-0.3 -0.3,-0.4 0,-0.1 0,-0.4 0.1,-0.7 l 1.2,-2.9 c 0.1,-0.3 0.3,-0.5 0.4,-0.5 0.1,0 0.4,0 0.6,0.1 0.5,0.2 1,0.4 1.6,0.6 0.6,0.2 1.2,0.4 1.8,0.5 0.6,0.2 1.3,0.3 1.9,0.4 0.6,0.1 1.3,0.2 1.9,0.2 0.8,0 1.4,-0.1 1.9,-0.2 0.5,-0.1 0.9,-0.3 1.2,-0.6 0.3,-0.2 0.5,-0.5 0.7,-0.8 0.1,-0.3 0.2,-0.6 0.2,-1 0,-0.4 -0.1,-0.7 -0.2,-1 -0.1,-0.3 -0.4,-0.6 -0.7,-0.9 -0.3,-0.3 -0.7,-0.6 -1.2,-0.8 -0.5,-0.3 -1.2,-0.5 -2,-0.8 -1.3,-0.5 -2.5,-1 -3.5,-1.5 -1.1,-0.5 -2,-1.1 -2.7,-1.7 -0.8,-0.6 -1.3,-1.3 -1.7,-2.1 -0.3,-0.9 -0.5,-1.8 -0.5,-2.8 z"
   id="path21" />
			<path
   class="st0"
   d="m 655.1,593 c 1.6,0.4 2.7,1.2 3.4,2.2 0.7,1.1 1,2.2 1,3.5 0,1.2 -0.2,2.2 -0.7,3.2 -0.5,1 -1.1,1.8 -2,2.4 -0.8,0.7 -1.9,1.2 -3.1,1.5 -1.2,0.4 -2.5,0.5 -3.9,0.5 -1.7,0 -3.3,-0.2 -4.7,-0.6 -1.4,-0.4 -2.8,-1.1 -3.9,-2 -0.2,-0.2 -0.3,-0.3 -0.3,-0.5 0,-0.1 0,-0.3 0.2,-0.5 l 1.6,-2.6 c 0.2,-0.3 0.3,-0.4 0.5,-0.5 0.2,0 0.4,0 0.7,0.2 0.9,0.6 1.8,1.1 2.8,1.3 1,0.3 1.9,0.4 2.8,0.4 1.5,0 2.6,-0.3 3.4,-1 0.8,-0.7 1.2,-1.6 1.2,-2.8 0,-0.8 -0.3,-1.5 -1,-2.1 -0.6,-0.6 -1.6,-0.9 -3,-0.9 h -1 c -0.6,0 -1,-0.1 -1.1,-0.2 -0.1,-0.1 -0.2,-0.5 -0.2,-1 V 592 c 0,-0.6 0.1,-0.9 0.2,-1.1 0.1,-0.2 0.4,-0.2 0.8,-0.2 h 1.1 c 1.2,0 2,-0.3 2.7,-0.8 0.6,-0.5 0.9,-1.2 0.9,-2.1 0,-0.5 -0.1,-0.9 -0.3,-1.2 -0.2,-0.3 -0.5,-0.6 -0.8,-0.8 -0.3,-0.2 -0.7,-0.3 -1.1,-0.4 -0.4,-0.1 -0.8,-0.1 -1.3,-0.1 -0.9,0 -1.8,0.1 -2.8,0.4 -1,0.3 -1.9,0.7 -2.7,1.2 -0.3,0.2 -0.6,0.3 -0.7,0.3 -0.2,0 -0.3,-0.2 -0.5,-0.4 l -1.5,-2.5 c -0.1,-0.2 -0.2,-0.4 -0.2,-0.5 0,-0.1 0.1,-0.3 0.3,-0.5 0.6,-0.5 1.2,-0.9 1.9,-1.2 0.7,-0.3 1.4,-0.6 2.2,-0.8 0.7,-0.2 1.5,-0.4 2.3,-0.5 0.8,-0.1 1.5,-0.2 2.2,-0.2 1.1,0 2.2,0.1 3.2,0.3 1,0.2 1.9,0.6 2.7,1.1 0.8,0.5 1.4,1.2 1.9,2 0.5,0.8 0.7,1.8 0.7,3 0,0.6 -0.1,1.2 -0.3,1.7 -0.2,0.6 -0.4,1.1 -0.8,1.6 -0.3,0.5 -0.8,0.9 -1.2,1.3 -0.5,0.4 -1,0.7 -1.6,0.9 z"
   id="path23" />
		</g>
		<rect
   x="221.10001"
   y="561.5"
   class="st0"
   width="128.7"
   height="128.7"
   id="rect27" />
		<g
   id="g33">
			<path
   class="st1"
   d="m 285.1,612.5 c 0.2,0 0.4,0.1 0.6,0.1 l 0.4,0.1 c 2.5,0.4 4.3,1.3 5.5,2.6 0.6,0.6 1.1,1.4 1.4,2.3 0.1,0.2 0.1,0.3 0.2,0.5 0.3,0.7 0.7,1.4 1.2,2 0.1,0.1 0.2,0.2 0.2,0.3 0,0 0.1,0.1 0.1,0.1 0.1,0.1 0.1,0.1 0.2,0.2 v 0 c 0.1,0 0.1,0.1 0.1,0.1 1.7,1.4 4.1,1.6 6.2,1.6 0.1,0 0.2,0 0.3,0 h 0.7 c -0.1,-12.7 -7.1,-19.1 -21.3,-19.1 h -29.8 c -14.2,0 -20.6,5.7 -20.6,18.6 0,12.1 5.9,16.8 20.9,16.8 h 29.7 c 11,0 12.9,3.1 12.9,9.5 0,6.9 -3.7,9.9 -12.5,9.9 h -27.9 c -7.5,0 -11.7,-1.9 -13.2,-6.1 0,-0.1 -0.1,-0.2 -0.1,-0.3 v 0 c 0,0 0,0 0,-0.1 -0.2,-0.6 -1.8,-4.2 -9.2,-4.3 v 0.2 1.2 0.8 c 0.5,11.1 7.9,17.5 20.4,17.5 H 282 c 10.2,0 20.7,-2.2 20.7,-18.6 0,-9 -3.3,-14.4 -10.4,-16.9 l -0.3,-0.1 c -0.3,-0.1 -0.6,-0.2 -0.8,-0.3 -3,-0.9 -6.8,-1.4 -11.8,-1.4 H 253 c -10.2,0 -13.8,-1.2 -13.8,-8 0,-6.7 1.7,-9.7 11.9,-9.7 h 28.4 c 1.8,0 3.3,0.1 4.7,0.3 v 0 z"
   id="path29" />
			<path
   d="m 329.2,603.7 c 0,-0.3 6.4,-0.1 6.9,-10.2 V 593 c -0.6,-10.7 -8,-13.4 -17,-13.4 h -17.8 c -10.8,0 -16.8,4.7 -16.7,14.7 l 1.3,-0.2 c 1.9,-0.3 3.2,-0.9 4,-1.8 0.4,-0.4 0.7,-0.9 0.9,-1.6 l 0.1,-0.2 c 0.3,-0.7 0.6,-1.3 1,-1.9 0.1,-0.1 0.2,-0.3 0.3,-0.4 1.9,-2.5 5.2,-3.4 9.2,-3.4 h 2.5 16.4 c 7.2,0 10.4,2 10.8,8.2 v 0 0.4 0 c -0.4,7 -3.9,7.4 -10.8,7.4 h -8.5 v 5.6 h 8.5 c 7.3,0 10.9,0.6 10.9,8.8 0,7.5 -3,9.8 -10.9,9.8 h -16.5 v 0 h -2 c -0.1,0 -0.1,0 -0.2,0 h -0.2 c 0,0 0,0 0,0 -2.5,0 -5.4,-0.3 -7.7,-2.2 l -0.2,-0.2 c -0.1,-0.1 -0.2,-0.2 -0.3,-0.3 -0.1,-0.1 -0.1,-0.1 -0.2,-0.2 -0.1,-0.1 -0.2,-0.2 -0.3,-0.4 -0.8,-0.8 -1.4,-1.8 -1.8,-2.9 l -0.1,-0.2 c -0.2,-0.7 -0.5,-1.2 -0.9,-1.6 -0.8,-0.9 -2.1,-1.5 -4,-1.8 l -1.2,-0.2 c 0,10.8 6.5,15 16.8,15 H 319 c 9.5,0 17.1,-2.9 17.1,-14.9 0.1,-11.3 -6.9,-11.1 -6.9,-11.4 z"
   id="path31" />
		</g>
		<g
   id="g75">
			<path
   d="m 400.1,637.5 c 0,0.9 -0.2,1.6 -0.5,2.3 -0.3,0.6 -0.8,1.2 -1.4,1.6 -0.6,0.4 -1.3,0.8 -2,1 -0.8,0.2 -1.6,0.3 -2.5,0.3 -0.5,0 -1,0 -1.6,-0.1 -0.6,0 -1.1,-0.1 -1.7,-0.2 -0.6,-0.1 -1.1,-0.2 -1.7,-0.4 -0.6,-0.2 -1.1,-0.4 -1.6,-0.7 -0.2,-0.1 -0.2,-0.3 -0.1,-0.5 l 0.6,-1.4 c 0.1,-0.2 0.2,-0.2 0.4,-0.2 0.9,0.4 1.8,0.7 2.8,0.9 1,0.2 1.9,0.3 2.7,0.3 1.3,0 2.4,-0.2 3.1,-0.7 0.7,-0.5 1.1,-1.2 1.1,-2.2 0,-0.5 -0.1,-0.8 -0.3,-1.2 -0.2,-0.3 -0.5,-0.7 -0.8,-0.9 -0.4,-0.3 -0.8,-0.6 -1.3,-0.8 -0.5,-0.3 -1.2,-0.5 -1.9,-0.8 -1,-0.3 -1.8,-0.7 -2.5,-1 -0.7,-0.3 -1.3,-0.7 -1.8,-1.1 -0.5,-0.4 -0.8,-0.9 -1.1,-1.4 -0.2,-0.5 -0.4,-1.1 -0.4,-1.8 0,-1.4 0.5,-2.6 1.5,-3.5 1,-0.9 2.4,-1.3 4.3,-1.3 0.9,0 1.8,0.1 2.8,0.2 1,0.2 1.9,0.4 2.7,0.8 0.2,0.1 0.3,0.2 0.2,0.4 l -0.6,1.5 c -0.1,0.1 -0.1,0.2 -0.1,0.2 0,0 -0.1,0 -0.2,0 -0.9,-0.3 -1.7,-0.6 -2.5,-0.7 -0.8,-0.1 -1.6,-0.2 -2.3,-0.2 -1,0 -1.9,0.2 -2.4,0.7 -0.6,0.5 -0.9,1.1 -0.9,1.8 0,0.4 0.1,0.8 0.3,1.1 0.2,0.3 0.5,0.6 0.8,0.9 0.4,0.3 0.8,0.5 1.4,0.8 0.6,0.2 1.3,0.5 2,0.8 0.7,0.3 1.4,0.6 2.1,0.9 0.7,0.3 1.2,0.7 1.7,1.1 0.5,0.4 0.9,0.9 1.2,1.5 0.4,0.5 0.5,1.2 0.5,2 z"
   id="path35" />
			<path
   d="m 405.8,625 c 0,0.4 -0.1,0.8 -0.4,1.1 -0.3,0.3 -0.7,0.4 -1.1,0.4 -0.4,0 -0.8,-0.1 -1.1,-0.4 -0.3,-0.3 -0.5,-0.7 -0.5,-1.1 0,-0.4 0.2,-0.8 0.5,-1.1 0.3,-0.3 0.7,-0.4 1.1,-0.4 0.4,0 0.8,0.1 1.1,0.4 0.2,0.3 0.4,0.7 0.4,1.1 z m -0.4,17 c 0,0.2 0,0.3 -0.1,0.3 -0.1,0 -0.2,0.1 -0.3,0.1 h -1.4 c -0.1,0 -0.2,0 -0.3,-0.1 -0.1,0 -0.1,-0.2 -0.1,-0.3 v -12.9 c 0,-0.2 0,-0.3 0.1,-0.3 0.1,0 0.2,-0.1 0.3,-0.1 h 1.4 c 0.2,0 0.3,0 0.3,0.1 0.1,0 0.1,0.2 0.1,0.3 z"
   id="path37" />
			<path
   d="m 420.6,642.4 c -0.1,0 -0.2,0.1 -0.3,0.1 h -1.4 c -0.1,0 -0.2,0 -0.3,-0.1 -0.1,0 -0.1,-0.2 -0.1,-0.3 v -6.9 c 0,-0.8 -0.1,-1.5 -0.2,-2.1 -0.1,-0.6 -0.4,-1.1 -0.7,-1.5 -0.3,-0.4 -0.8,-0.7 -1.3,-0.9 -0.5,-0.2 -1.2,-0.3 -2.1,-0.3 -0.2,0 -0.5,0 -1,0 -0.5,0 -1,0.1 -1.5,0.2 V 642 c 0,0.2 0,0.3 -0.1,0.3 -0.1,0 -0.2,0.1 -0.3,0.1 h -1.4 c -0.1,0 -0.2,0 -0.3,-0.1 -0.1,0 -0.1,-0.2 -0.1,-0.3 v -11.4 c 0,-0.6 0.1,-1.1 0.4,-1.4 0.2,-0.3 0.7,-0.5 1.3,-0.6 0.2,0 0.4,-0.1 0.7,-0.1 0.3,0 0.6,-0.1 0.9,-0.1 0.3,0 0.6,0 0.9,-0.1 0.3,0 0.5,0 0.8,0 1.1,0 2.1,0.1 2.9,0.4 0.8,0.2 1.5,0.6 2,1.2 0.5,0.5 0.9,1.2 1.1,2.1 0.2,0.8 0.4,1.8 0.4,3 v 7 c -0.2,0.2 -0.3,0.3 -0.3,0.4 z"
   id="path39" />
			<path
   d="m 429.9,628.4 c 0.8,0 1.7,0.1 2.6,0.2 0.9,0.1 1.7,0.3 2.5,0.7 0.2,0.1 0.3,0.3 0.3,0.5 v 11.6 c 0,1.2 -0.1,2.2 -0.4,3 -0.3,0.8 -0.7,1.5 -1.2,2 -0.6,0.5 -1.2,1 -2.1,1.3 -0.8,0.3 -1.8,0.5 -2.9,0.7 -0.1,0 -0.2,0 -0.3,0 -0.1,0 -0.1,-0.1 -0.1,-0.3 l -0.2,-1.4 c 0,-0.2 0.1,-0.3 0.3,-0.3 0.7,-0.1 1.4,-0.2 2,-0.4 0.6,-0.2 1,-0.4 1.4,-0.7 0.4,-0.3 0.7,-0.7 0.9,-1.1 0.2,-0.4 0.3,-1 0.3,-1.6 v -0.2 c -0.6,0.2 -1.2,0.3 -1.8,0.4 -0.7,0.1 -1.2,0.2 -1.7,0.2 -1,0 -1.9,-0.2 -2.6,-0.5 -0.7,-0.3 -1.4,-0.8 -1.8,-1.4 -0.4,-0.6 -0.8,-1.3 -1.1,-2.2 -0.2,-0.9 -0.3,-1.8 -0.3,-2.8 0,-1.1 0.1,-2 0.4,-2.9 0.3,-0.9 0.6,-1.7 1.1,-2.3 0.5,-0.6 1.2,-1.2 2,-1.5 0.6,-0.8 1.6,-1 2.7,-1 z m 3.1,2.4 c -0.5,-0.2 -1,-0.3 -1.6,-0.4 -0.6,-0.1 -1,-0.1 -1.4,-0.1 -0.6,0 -1.2,0.1 -1.7,0.3 -0.5,0.2 -0.9,0.5 -1.3,0.9 -0.4,0.4 -0.6,1 -0.8,1.6 -0.2,0.7 -0.3,1.5 -0.3,2.4 0,1.7 0.3,3 1,3.9 0.7,0.9 1.6,1.3 2.8,1.3 0.3,0 0.8,0 1.4,-0.1 0.6,-0.1 1.2,-0.2 1.9,-0.4 z"
   id="path41" />
			<path
   d="m 443.5,642.2 c 0,0.1 -0.1,0.1 -0.2,0.2 -0.3,0.1 -0.6,0.2 -1,0.3 -0.4,0 -0.7,0.1 -1,0.1 -0.9,0 -1.5,-0.2 -1.9,-0.6 -0.4,-0.4 -0.5,-1.1 -0.5,-2 v -16.4 c 0,-0.2 0,-0.3 0.1,-0.3 0.1,0 0.2,-0.1 0.3,-0.1 h 1.4 c 0.2,0 0.3,0 0.3,0.1 0.1,0 0.1,0.2 0.1,0.3 v 15.8 c 0,0.5 0.1,0.8 0.2,1 0.1,0.2 0.4,0.2 0.7,0.2 0.2,0 0.3,0 0.5,0 0.2,0 0.3,0 0.4,0 0.1,0 0.2,0 0.3,0 0.1,0 0.1,0.1 0.1,0.2 l 0.1,1 c 0.2,0.1 0.2,0.2 0.1,0.2 z"
   id="path43" />
			<path
   d="m 451.3,628.4 c 1,0 1.9,0.1 2.6,0.4 0.7,0.3 1.3,0.7 1.8,1.2 0.5,0.5 0.8,1.1 1,1.8 0.2,0.7 0.3,1.5 0.3,2.3 0,0.4 -0.1,0.8 -0.2,1 -0.1,0.3 -0.2,0.5 -0.4,0.6 -0.2,0.1 -0.4,0.3 -0.6,0.3 -0.2,0.1 -0.5,0.1 -0.7,0.1 h -7.5 c 0,0.8 0.1,1.5 0.3,2.1 0.2,0.6 0.5,1 0.9,1.4 0.4,0.4 0.8,0.6 1.3,0.8 0.5,0.2 1,0.2 1.6,0.2 0.6,0 1.1,-0.1 1.7,-0.2 0.6,-0.1 1,-0.3 1.4,-0.5 0.2,-0.1 0.4,-0.1 0.5,0.1 l 0.5,1.1 c 0.1,0.2 0.1,0.4 -0.2,0.5 -0.6,0.4 -1.3,0.6 -2,0.8 -0.7,0.1 -1.4,0.2 -2.1,0.2 -1,0 -1.9,-0.1 -2.6,-0.4 -0.8,-0.3 -1.4,-0.7 -2,-1.3 -0.5,-0.6 -1,-1.3 -1.2,-2.2 -0.3,-0.9 -0.4,-2 -0.4,-3.2 0,-1.2 0.2,-2.2 0.5,-3.1 0.3,-0.9 0.7,-1.7 1.3,-2.3 0.5,-0.6 1.2,-1.1 1.9,-1.4 0.7,-0.1 1.5,-0.3 2.3,-0.3 z m 3.6,6 c 0,-0.5 -0.1,-1.1 -0.2,-1.6 -0.1,-0.5 -0.3,-0.9 -0.6,-1.3 -0.3,-0.4 -0.6,-0.7 -1.1,-0.9 -0.5,-0.2 -1,-0.3 -1.7,-0.3 -0.6,0 -1.1,0.1 -1.5,0.3 -0.4,0.2 -0.8,0.5 -1.1,0.9 -0.3,0.4 -0.5,0.8 -0.7,1.3 -0.2,0.5 -0.3,1 -0.3,1.5 h 7.2 z"
   id="path45" />
			<path
   d="m 479.4,637.5 c 0,0.9 -0.2,1.6 -0.5,2.3 -0.3,0.6 -0.8,1.2 -1.4,1.6 -0.6,0.4 -1.3,0.8 -2,1 -0.8,0.2 -1.6,0.3 -2.5,0.3 -0.5,0 -1,0 -1.6,-0.1 -0.6,0 -1.1,-0.1 -1.7,-0.2 -0.6,-0.1 -1.1,-0.2 -1.7,-0.4 -0.6,-0.2 -1.1,-0.4 -1.6,-0.7 -0.2,-0.1 -0.2,-0.3 -0.1,-0.5 l 0.6,-1.4 c 0.1,-0.2 0.2,-0.2 0.4,-0.2 0.9,0.4 1.8,0.7 2.8,0.9 1,0.2 1.9,0.3 2.7,0.3 1.3,0 2.4,-0.2 3.1,-0.7 0.7,-0.5 1.1,-1.2 1.1,-2.2 0,-0.5 -0.1,-0.8 -0.3,-1.2 -0.2,-0.3 -0.5,-0.7 -0.8,-0.9 -0.4,-0.3 -0.8,-0.6 -1.3,-0.8 -0.5,-0.3 -1.2,-0.5 -1.9,-0.8 -1,-0.3 -1.8,-0.7 -2.5,-1 -0.7,-0.3 -1.3,-0.7 -1.8,-1.1 -0.5,-0.4 -0.8,-0.9 -1.1,-1.4 -0.2,-0.5 -0.4,-1.1 -0.4,-1.8 0,-1.4 0.5,-2.6 1.5,-3.5 1,-0.9 2.4,-1.3 4.3,-1.3 0.9,0 1.8,0.1 2.8,0.2 1,0.2 1.9,0.4 2.7,0.8 0.2,0.1 0.3,0.2 0.2,0.4 l -0.6,1.5 c -0.1,0.1 -0.1,0.2 -0.1,0.2 0,0 -0.1,0 -0.2,0 -0.9,-0.3 -1.7,-0.6 -2.5,-0.7 -0.8,-0.1 -1.6,-0.2 -2.3,-0.2 -1,0 -1.9,0.2 -2.4,0.7 -0.6,0.5 -0.9,1.1 -0.9,1.8 0,0.4 0.1,0.8 0.3,1.1 0.2,0.3 0.5,0.6 0.8,0.9 0.4,0.3 0.8,0.5 1.4,0.8 0.6,0.2 1.3,0.5 2,0.8 0.7,0.3 1.4,0.6 2.1,0.9 0.7,0.3 1.2,0.7 1.7,1.1 0.5,0.4 0.9,0.9 1.2,1.5 0.4,0.5 0.5,1.2 0.5,2 z"
   id="path47" />
			<path
   d="m 493.5,635.5 c 0,2.3 -0.5,4.1 -1.6,5.4 -1.1,1.2 -2.6,1.9 -4.6,1.9 -2,0 -3.5,-0.6 -4.5,-1.8 -1,-1.2 -1.5,-3 -1.5,-5.3 0,-1.2 0.2,-2.2 0.5,-3.1 0.3,-0.9 0.7,-1.6 1.3,-2.2 0.5,-0.6 1.2,-1.1 1.9,-1.4 0.7,-0.3 1.6,-0.5 2.4,-0.5 2,0 3.5,0.6 4.5,1.9 1.1,1.1 1.6,2.9 1.6,5.1 z m -2.3,0.1 c 0,-0.7 -0.1,-1.3 -0.2,-2 -0.1,-0.6 -0.3,-1.2 -0.6,-1.7 -0.3,-0.5 -0.7,-0.9 -1.2,-1.2 -0.5,-0.3 -1.1,-0.4 -1.9,-0.4 -0.7,0 -1.2,0.1 -1.7,0.4 -0.5,0.3 -0.9,0.7 -1.2,1.1 -0.3,0.5 -0.5,1 -0.7,1.6 -0.2,0.6 -0.2,1.3 -0.2,2 0,0.8 0.1,1.5 0.2,2.2 0.1,0.7 0.3,1.2 0.6,1.7 0.3,0.5 0.7,0.8 1.2,1.1 0.5,0.3 1.1,0.4 1.8,0.4 0.7,0 1.3,-0.1 1.8,-0.4 0.5,-0.3 0.9,-0.7 1.2,-1.2 0.3,-0.5 0.5,-1 0.6,-1.7 0.3,-0.6 0.3,-1.3 0.3,-1.9 z"
   id="path49" />
			<path
   d="m 496.5,628.7 c 0.1,0 0.2,-0.1 0.3,-0.1 h 1.4 c 0.1,0 0.2,0 0.3,0.1 0.1,0 0.1,0.2 0.1,0.3 v 7 c 0,0.8 0.1,1.5 0.2,2.1 0.1,0.6 0.3,1.1 0.6,1.5 0.3,0.4 0.7,0.7 1.2,0.9 0.5,0.2 1.2,0.3 2.1,0.3 0.2,0 0.5,0 1,0 0.4,0 1,-0.1 1.5,-0.2 v -11.4 c 0,-0.2 0,-0.3 0.1,-0.3 0.1,0 0.2,-0.1 0.3,-0.1 h 1.4 c 0.1,0 0.2,0 0.3,0.1 0.1,0 0.1,0.2 0.1,0.3 v 11.4 c 0,1.1 -0.5,1.8 -1.6,2 -0.2,0 -0.5,0.1 -0.8,0.1 -0.3,0 -0.6,0 -0.9,0.1 -0.3,0 -0.6,0 -0.9,0 -0.3,0 -0.5,0 -0.7,0 -1.1,0 -2.1,-0.1 -2.9,-0.4 -0.8,-0.2 -1.4,-0.6 -1.9,-1.1 -0.5,-0.5 -0.8,-1.2 -1.1,-2 -0.2,-0.8 -0.3,-1.8 -0.3,-3 v -7.1 c 0.1,-0.3 0.2,-0.4 0.2,-0.5 z"
   id="path51" />
			<path
   d="m 519.1,631.9 c -0.1,0.1 -0.2,0.2 -0.2,0.1 -0.1,0 -0.1,-0.1 -0.2,-0.1 -0.5,-0.5 -1,-0.8 -1.7,-1.1 -0.6,-0.3 -1.3,-0.4 -2,-0.4 -0.5,0 -1,0.1 -1.5,0.2 V 642 c 0,0.2 0,0.3 -0.1,0.3 -0.1,0 -0.2,0.1 -0.3,0.1 h -1.5 c -0.1,0 -0.2,0 -0.3,-0.1 -0.1,0 -0.1,-0.2 -0.1,-0.3 v -11.5 c 0,-0.6 0.1,-1.1 0.3,-1.4 0.2,-0.3 0.7,-0.5 1.3,-0.6 0.4,0 0.7,-0.1 1,-0.1 0.3,0 0.7,0 1,0 1,0 2,0.1 2.9,0.4 0.9,0.3 1.7,0.7 2.4,1.4 0.1,0.1 0.1,0.3 0,0.4 z"
   id="path53" />
			<path
   d="m 527,640.7 c 0.6,0 1.2,-0.1 1.7,-0.2 0.6,-0.2 1,-0.3 1.4,-0.5 0.2,-0.1 0.3,-0.1 0.3,-0.1 0.1,0 0.1,0.1 0.2,0.2 l 0.5,1.1 c 0.1,0.2 0.1,0.4 -0.1,0.6 -0.7,0.4 -1.4,0.6 -2.2,0.8 -0.8,0.1 -1.5,0.2 -2.2,0.2 -1.9,0 -3.4,-0.6 -4.4,-1.8 -1,-1.2 -1.5,-2.9 -1.5,-5.2 0,-1.1 0.1,-2.1 0.4,-3 0.3,-0.9 0.7,-1.7 1.2,-2.3 0.5,-0.6 1.2,-1.1 1.9,-1.5 0.8,-0.3 1.6,-0.5 2.6,-0.5 0.7,0 1.4,0.1 2,0.2 0.6,0.1 1.3,0.4 1.8,0.7 0.2,0.1 0.3,0.3 0.2,0.5 l -0.5,1.1 c -0.1,0.1 -0.1,0.2 -0.2,0.2 -0.1,0 -0.2,0 -0.3,-0.1 -0.4,-0.2 -0.9,-0.3 -1.4,-0.5 -0.5,-0.1 -1,-0.2 -1.6,-0.2 -0.7,0 -1.3,0.1 -1.8,0.4 -0.5,0.3 -0.9,0.7 -1.2,1.2 -0.3,0.5 -0.6,1 -0.7,1.7 -0.1,0.6 -0.2,1.3 -0.2,2 0,0.7 0.1,1.3 0.2,2 0.1,0.6 0.3,1.1 0.6,1.6 0.3,0.5 0.7,0.8 1.2,1.1 0.7,0.2 1.3,0.3 2.1,0.3 z"
   id="path55" />
			<path
   d="m 539.3,628.4 c 1,0 1.9,0.1 2.6,0.4 0.7,0.3 1.3,0.7 1.8,1.2 0.5,0.5 0.8,1.1 1,1.8 0.2,0.7 0.3,1.5 0.3,2.3 0,0.4 -0.1,0.8 -0.2,1 -0.1,0.3 -0.2,0.5 -0.4,0.6 -0.2,0.1 -0.4,0.3 -0.6,0.3 -0.2,0.1 -0.5,0.1 -0.7,0.1 h -7.5 c 0,0.8 0.1,1.5 0.3,2.1 0.2,0.6 0.5,1 0.9,1.4 0.4,0.4 0.8,0.6 1.3,0.8 0.5,0.2 1,0.2 1.6,0.2 0.6,0 1.1,-0.1 1.7,-0.2 0.6,-0.1 1,-0.3 1.4,-0.5 0.2,-0.1 0.4,-0.1 0.5,0.1 l 0.5,1.1 c 0.1,0.2 0.1,0.4 -0.2,0.5 -0.6,0.4 -1.3,0.6 -2,0.8 -0.7,0.1 -1.4,0.2 -2.1,0.2 -1,0 -1.9,-0.1 -2.6,-0.4 -0.8,-0.3 -1.4,-0.7 -2,-1.3 -0.6,-0.6 -1,-1.3 -1.2,-2.2 -0.3,-0.9 -0.4,-2 -0.4,-3.2 0,-1.2 0.2,-2.2 0.5,-3.1 0.3,-0.9 0.7,-1.7 1.3,-2.3 0.5,-0.6 1.2,-1.1 1.9,-1.4 0.6,-0.1 1.4,-0.3 2.3,-0.3 z m 3.6,6 c 0,-0.5 -0.1,-1.1 -0.2,-1.6 -0.1,-0.5 -0.3,-0.9 -0.6,-1.3 -0.3,-0.4 -0.6,-0.7 -1.1,-0.9 -0.5,-0.2 -1,-0.3 -1.7,-0.3 -0.6,0 -1.1,0.1 -1.5,0.3 -0.4,0.2 -0.8,0.5 -1.1,0.9 -0.3,0.4 -0.5,0.8 -0.7,1.3 -0.2,0.5 -0.3,1 -0.3,1.5 h 7.2 z"
   id="path57" />
			<path
   d="m 567.4,637.5 c 0,0.9 -0.2,1.6 -0.5,2.3 -0.3,0.6 -0.8,1.2 -1.4,1.6 -0.6,0.4 -1.3,0.8 -2,1 -0.8,0.2 -1.6,0.3 -2.5,0.3 -0.5,0 -1,0 -1.6,-0.1 -0.6,0 -1.1,-0.1 -1.7,-0.2 -0.6,-0.1 -1.1,-0.2 -1.7,-0.4 -0.6,-0.2 -1.1,-0.4 -1.6,-0.7 -0.2,-0.1 -0.2,-0.3 -0.1,-0.5 l 0.6,-1.4 c 0.1,-0.2 0.2,-0.2 0.4,-0.2 0.9,0.4 1.8,0.7 2.8,0.9 1,0.2 1.9,0.3 2.7,0.3 1.3,0 2.4,-0.2 3.1,-0.7 0.7,-0.5 1.1,-1.2 1.1,-2.2 0,-0.5 -0.1,-0.8 -0.3,-1.2 -0.2,-0.3 -0.5,-0.7 -0.8,-0.9 -0.4,-0.3 -0.8,-0.6 -1.3,-0.8 -0.5,-0.3 -1.2,-0.5 -1.9,-0.8 -1,-0.3 -1.8,-0.7 -2.5,-1 -0.7,-0.3 -1.3,-0.7 -1.8,-1.1 -0.5,-0.4 -0.8,-0.9 -1.1,-1.4 -0.2,-0.5 -0.4,-1.1 -0.4,-1.8 0,-1.4 0.5,-2.6 1.5,-3.5 1,-0.9 2.4,-1.3 4.3,-1.3 0.9,0 1.8,0.1 2.8,0.2 1,0.2 1.9,0.4 2.7,0.8 0.2,0.1 0.3,0.2 0.2,0.4 l -0.6,1.5 c -0.1,0.1 -0.1,0.2 -0.1,0.2 0,0 -0.1,0 -0.2,0 -0.9,-0.3 -1.7,-0.6 -2.5,-0.7 -0.8,-0.1 -1.6,-0.2 -2.3,-0.2 -1,0 -1.9,0.2 -2.4,0.7 -0.6,0.5 -0.9,1.1 -0.9,1.8 0,0.4 0.1,0.8 0.3,1.1 0.2,0.3 0.5,0.6 0.8,0.9 0.4,0.3 0.8,0.5 1.4,0.8 0.6,0.2 1.3,0.5 2,0.8 0.7,0.3 1.4,0.6 2.1,0.9 0.7,0.3 1.2,0.7 1.7,1.1 0.5,0.4 0.9,0.9 1.2,1.5 0.3,0.5 0.5,1.2 0.5,2 z"
   id="path59" />
			<path
   d="m 569.9,628.7 c 0.1,0 0.2,-0.1 0.3,-0.1 h 1.4 c 0.1,0 0.2,0 0.3,0.1 0.1,0 0.1,0.2 0.1,0.3 v 7 c 0,0.8 0.1,1.5 0.2,2.1 0.1,0.6 0.3,1.1 0.6,1.5 0.3,0.4 0.7,0.7 1.2,0.9 0.5,0.2 1.2,0.3 2.1,0.3 0.2,0 0.5,0 1,0 0.4,0 1,-0.1 1.5,-0.2 v -11.4 c 0,-0.2 0,-0.3 0.1,-0.3 0.1,0 0.2,-0.1 0.3,-0.1 h 1.4 c 0.1,0 0.2,0 0.3,0.1 0.1,0 0.1,0.2 0.1,0.3 v 11.4 c 0,1.1 -0.5,1.8 -1.6,2 -0.2,0 -0.5,0.1 -0.8,0.1 -0.3,0 -0.6,0 -0.9,0.1 -0.3,0 -0.6,0 -0.9,0 -0.3,0 -0.5,0 -0.7,0 -1.1,0 -2.1,-0.1 -2.9,-0.4 -0.8,-0.2 -1.4,-0.6 -1.9,-1.1 -0.5,-0.5 -0.8,-1.2 -1.1,-2 -0.2,-0.8 -0.3,-1.8 -0.3,-3 v -7.1 c 0.1,-0.3 0.1,-0.4 0.2,-0.5 z"
   id="path61" />
			<path
   d="m 596,635.5 c 0,1 -0.1,1.9 -0.4,2.8 -0.3,0.9 -0.6,1.6 -1.1,2.3 -0.5,0.7 -1.1,1.2 -1.9,1.5 -0.8,0.4 -1.7,0.6 -2.7,0.6 -0.5,0 -1,0 -1.6,-0.1 -0.6,-0.1 -1.2,-0.2 -1.8,-0.4 v 5.1 c 0,0.2 0,0.3 -0.1,0.3 -0.1,0 -0.2,0.1 -0.3,0.1 h -1.5 c -0.1,0 -0.2,0 -0.3,-0.1 -0.1,0 -0.1,-0.1 -0.1,-0.3 v -17.5 c 0,-0.2 0.1,-0.4 0.3,-0.4 0.9,-0.4 1.8,-0.6 2.7,-0.8 0.9,-0.1 1.8,-0.2 2.6,-0.2 1,0 2,0.2 2.7,0.5 0.8,0.4 1.4,0.9 1.9,1.5 0.5,0.6 0.9,1.4 1.1,2.3 0.4,0.9 0.5,1.8 0.5,2.8 z m -2.3,0 c 0,-1 -0.1,-1.8 -0.3,-2.4 -0.2,-0.7 -0.5,-1.2 -0.8,-1.6 -0.4,-0.4 -0.8,-0.7 -1.3,-0.9 -0.5,-0.2 -1.1,-0.3 -1.7,-0.3 -0.5,0 -1,0 -1.5,0.1 -0.6,0.1 -1.1,0.2 -1.5,0.4 v 9.4 c 0.7,0.2 1.2,0.3 1.7,0.4 0.5,0.1 0.9,0.1 1.3,0.1 0.6,0 1.1,-0.1 1.6,-0.3 0.5,-0.2 0.9,-0.5 1.3,-0.9 0.4,-0.4 0.6,-0.9 0.8,-1.6 0.3,-0.6 0.4,-1.4 0.4,-2.4 z"
   id="path63" />
			<path
   d="m 610.7,635.5 c 0,1 -0.1,1.9 -0.4,2.8 -0.3,0.9 -0.6,1.6 -1.1,2.3 -0.5,0.7 -1.1,1.2 -1.9,1.5 -0.8,0.4 -1.7,0.6 -2.7,0.6 -0.5,0 -1,0 -1.6,-0.1 -0.6,-0.1 -1.2,-0.2 -1.8,-0.4 v 5.1 c 0,0.2 0,0.3 -0.1,0.3 -0.1,0 -0.2,0.1 -0.3,0.1 h -1.5 c -0.1,0 -0.2,0 -0.3,-0.1 -0.1,0 -0.1,-0.1 -0.1,-0.3 v -17.5 c 0,-0.2 0.1,-0.4 0.3,-0.4 0.9,-0.4 1.8,-0.6 2.7,-0.8 0.9,-0.1 1.8,-0.2 2.6,-0.2 1,0 2,0.2 2.7,0.5 0.8,0.4 1.4,0.9 1.9,1.5 0.5,0.6 0.9,1.4 1.1,2.3 0.3,0.9 0.5,1.8 0.5,2.8 z m -2.4,0 c 0,-1 -0.1,-1.8 -0.3,-2.4 -0.2,-0.7 -0.5,-1.2 -0.8,-1.6 -0.4,-0.4 -0.8,-0.7 -1.3,-0.9 -0.5,-0.2 -1.1,-0.3 -1.7,-0.3 -0.5,0 -1,0 -1.5,0.1 -0.6,0.1 -1.1,0.2 -1.5,0.4 v 9.4 c 0.7,0.2 1.2,0.3 1.7,0.4 0.5,0.1 0.9,0.1 1.3,0.1 0.6,0 1.1,-0.1 1.6,-0.3 0.5,-0.2 0.9,-0.5 1.3,-0.9 0.4,-0.4 0.6,-0.9 0.8,-1.6 0.3,-0.6 0.4,-1.4 0.4,-2.4 z"
   id="path65" />
			<path
   d="m 618.4,642.2 c 0,0.1 -0.1,0.1 -0.2,0.2 -0.3,0.1 -0.6,0.2 -1,0.3 -0.4,0 -0.7,0.1 -1,0.1 -0.9,0 -1.5,-0.2 -1.9,-0.6 -0.4,-0.4 -0.5,-1.1 -0.5,-2 v -16.4 c 0,-0.2 0,-0.3 0.1,-0.3 0.1,0 0.2,-0.1 0.3,-0.1 h 1.4 c 0.2,0 0.3,0 0.3,0.1 0.1,0 0.1,0.2 0.1,0.3 v 15.8 c 0,0.5 0.1,0.8 0.2,1 0.1,0.2 0.4,0.2 0.7,0.2 0.2,0 0.3,0 0.5,0 0.2,0 0.3,0 0.4,0 0.1,0 0.2,0 0.3,0 0.1,0 0.1,0.1 0.1,0.2 l 0.1,1 c 0.1,0.1 0.1,0.2 0.1,0.2 z"
   id="path67" />
			<path
   d="m 623.9,625 c 0,0.4 -0.1,0.8 -0.4,1.1 -0.3,0.3 -0.7,0.4 -1.1,0.4 -0.4,0 -0.8,-0.1 -1.1,-0.4 -0.3,-0.3 -0.5,-0.7 -0.5,-1.1 0,-0.4 0.2,-0.8 0.5,-1.1 0.3,-0.3 0.7,-0.4 1.1,-0.4 0.4,0 0.8,0.1 1.1,0.4 0.2,0.3 0.4,0.7 0.4,1.1 z m -0.4,17 c 0,0.2 0,0.3 -0.1,0.3 -0.1,0 -0.2,0.1 -0.3,0.1 h -1.4 c -0.1,0 -0.2,0 -0.3,-0.1 -0.1,0 -0.1,-0.2 -0.1,-0.3 v -12.9 c 0,-0.2 0,-0.3 0.1,-0.3 0.1,0 0.2,-0.1 0.3,-0.1 h 1.4 c 0.2,0 0.3,0 0.3,0.1 0.1,0 0.1,0.2 0.1,0.3 z"
   id="path69" />
			<path
   d="m 633,628.4 c 1,0 1.9,0.1 2.6,0.4 0.7,0.3 1.3,0.7 1.8,1.2 0.5,0.5 0.8,1.1 1,1.8 0.2,0.7 0.3,1.5 0.3,2.3 0,0.4 -0.1,0.8 -0.2,1 -0.1,0.3 -0.2,0.5 -0.4,0.6 -0.2,0.1 -0.4,0.3 -0.6,0.3 -0.2,0.1 -0.5,0.1 -0.7,0.1 h -7.5 c 0,0.8 0.1,1.5 0.3,2.1 0.2,0.6 0.5,1 0.9,1.4 0.4,0.4 0.8,0.6 1.3,0.8 0.5,0.2 1,0.2 1.6,0.2 0.6,0 1.1,-0.1 1.7,-0.2 0.6,-0.1 1,-0.3 1.4,-0.5 0.2,-0.1 0.4,-0.1 0.5,0.1 l 0.5,1.1 c 0.1,0.2 0.1,0.4 -0.2,0.5 -0.6,0.4 -1.3,0.6 -2,0.8 -0.7,0.1 -1.4,0.2 -2.1,0.2 -1,0 -1.9,-0.1 -2.6,-0.4 -0.8,-0.3 -1.4,-0.7 -2,-1.3 -0.5,-0.6 -1,-1.3 -1.2,-2.2 -0.3,-0.9 -0.4,-2 -0.4,-3.2 0,-1.2 0.2,-2.2 0.5,-3.1 0.3,-0.9 0.7,-1.7 1.3,-2.3 0.5,-0.6 1.2,-1.1 1.9,-1.4 0.6,-0.1 1.4,-0.3 2.3,-0.3 z m 3.5,6 c 0,-0.5 -0.1,-1.1 -0.2,-1.6 -0.1,-0.5 -0.3,-0.9 -0.6,-1.3 -0.3,-0.4 -0.6,-0.7 -1.1,-0.9 -0.5,-0.2 -1,-0.3 -1.7,-0.3 -0.6,0 -1.1,0.1 -1.5,0.3 -0.4,0.2 -0.8,0.5 -1.1,0.9 -0.3,0.4 -0.5,0.8 -0.7,1.3 -0.2,0.5 -0.3,1 -0.3,1.5 h 7.2 z"
   id="path71" />
			<path
   d="m 651,638.7 c 0,0.7 -0.1,1.3 -0.4,1.8 -0.3,0.5 -0.6,0.9 -1,1.2 -0.4,0.3 -1,0.6 -1.6,0.7 -0.6,0.2 -1.2,0.2 -1.9,0.2 -0.8,0 -1.7,-0.1 -2.6,-0.2 -0.9,-0.2 -1.7,-0.4 -2.5,-0.8 -0.1,-0.1 -0.2,-0.1 -0.2,-0.2 0,-0.1 0,-0.2 0,-0.3 l 0.5,-1.1 c 0.1,-0.1 0.1,-0.2 0.2,-0.3 0.1,0 0.2,0 0.4,0.1 0.7,0.3 1.4,0.6 2.2,0.7 0.7,0.1 1.4,0.2 2,0.2 0.8,0 1.5,-0.2 2,-0.5 0.5,-0.3 0.7,-0.8 0.7,-1.5 0,-0.6 -0.3,-1.2 -0.8,-1.5 -0.6,-0.4 -1.4,-0.7 -2.4,-1.1 -0.7,-0.3 -1.4,-0.5 -1.9,-0.8 -0.5,-0.3 -1,-0.5 -1.3,-0.9 -0.3,-0.3 -0.6,-0.6 -0.7,-1 -0.2,-0.4 -0.2,-0.8 -0.2,-1.4 0,-1.1 0.4,-2 1.2,-2.7 0.8,-0.7 1.9,-1.1 3.5,-1.1 0.7,0 1.4,0.1 2.1,0.2 0.7,0.1 1.3,0.3 2,0.6 0.2,0.1 0.3,0.3 0.2,0.5 l -0.5,1.2 c -0.1,0.1 -0.1,0.2 -0.2,0.2 -0.1,0 -0.1,0 -0.2,-0.1 -0.7,-0.3 -1.3,-0.4 -1.8,-0.5 -0.5,-0.1 -1.1,-0.1 -1.7,-0.1 -0.8,0 -1.4,0.2 -1.8,0.5 -0.4,0.3 -0.6,0.7 -0.6,1.2 0,0.3 0.1,0.6 0.2,0.8 0.1,0.2 0.3,0.4 0.5,0.6 0.2,0.2 0.6,0.4 1,0.5 0.4,0.2 0.9,0.4 1.4,0.6 0.5,0.2 1.1,0.4 1.6,0.7 0.5,0.2 1,0.5 1.4,0.8 0.4,0.3 0.7,0.7 1,1.1 0,0.6 0.2,1.1 0.2,1.7 z"
   id="path73" />
		</g>
		<g
   id="g103">
			<path
   d="m 397.3,661.6 c 0.5,0.2 1,0.4 1.4,0.8 0.4,0.3 0.7,0.7 0.9,1.1 0.2,0.4 0.4,0.8 0.5,1.3 0.1,0.5 0.2,0.9 0.2,1.4 0,0.8 -0.2,1.6 -0.5,2.2 -0.3,0.7 -0.7,1.2 -1.3,1.7 -0.5,0.5 -1.2,0.8 -1.9,1.1 -0.7,0.3 -1.5,0.4 -2.3,0.4 h -6.2 c -0.5,0 -0.8,-0.1 -1,-0.3 -0.2,-0.2 -0.3,-0.5 -0.3,-1 v -15.7 c 0,-0.5 0.1,-0.8 0.3,-1 0.2,-0.2 0.5,-0.3 1,-0.3 h 5.8 c 0.8,0 1.5,0.1 2.2,0.2 0.7,0.2 1.2,0.4 1.7,0.8 0.5,0.4 0.9,0.8 1.1,1.4 0.3,0.6 0.4,1.3 0.4,2.1 0,0.8 -0.2,1.5 -0.6,2.2 -0.4,0.7 -0.9,1.1 -1.6,1.5 v 0.1 z m -8,-0.9 h 4.8 c 0.3,0 0.6,0 0.9,-0.1 0.3,-0.1 0.7,-0.2 1,-0.4 0.3,-0.2 0.6,-0.5 0.8,-0.8 0.2,-0.4 0.3,-0.8 0.3,-1.4 0,-0.7 -0.2,-1.3 -0.7,-1.8 -0.5,-0.5 -1.2,-0.7 -2,-0.7 h -5 v 5.2 z m 8.6,5.3 c 0,-1 -0.3,-1.8 -1,-2.4 -0.6,-0.6 -1.6,-0.9 -2.8,-0.9 h -4.9 v 6.7 h 4.9 c 0.7,0 1.4,-0.1 1.9,-0.3 0.5,-0.2 0.9,-0.5 1.2,-0.8 0.3,-0.3 0.5,-0.7 0.6,-1.1 0.1,-0.5 0.1,-0.8 0.1,-1.2 z"
   id="path77" />
			<path
   d="m 409.2,669.9 c 0.6,0 1.2,-0.1 1.7,-0.2 0.6,-0.2 1,-0.3 1.4,-0.5 0.2,-0.1 0.3,-0.1 0.3,-0.1 0.1,0 0.1,0.1 0.2,0.2 l 0.5,1.1 c 0.1,0.2 0.1,0.4 -0.1,0.6 -0.7,0.4 -1.4,0.6 -2.2,0.8 -0.8,0.1 -1.5,0.2 -2.2,0.2 -1.9,0 -3.4,-0.6 -4.4,-1.8 -1,-1.2 -1.5,-2.9 -1.5,-5.2 0,-1.1 0.1,-2.1 0.4,-3 0.3,-0.9 0.7,-1.7 1.2,-2.3 0.5,-0.6 1.2,-1.1 1.9,-1.5 0.8,-0.3 1.6,-0.5 2.6,-0.5 0.7,0 1.4,0.1 2,0.2 0.6,0.1 1.3,0.4 1.8,0.7 0.2,0.1 0.3,0.3 0.2,0.5 l -0.5,1.1 c -0.1,0.1 -0.1,0.2 -0.2,0.2 -0.1,0 -0.2,0 -0.3,-0.1 -0.4,-0.2 -0.9,-0.3 -1.4,-0.5 -0.5,-0.1 -1,-0.2 -1.6,-0.2 -0.7,0 -1.3,0.1 -1.8,0.4 -0.5,0.3 -0.9,0.7 -1.2,1.2 -0.3,0.5 -0.6,1 -0.7,1.7 -0.1,0.6 -0.2,1.3 -0.2,2 0,0.7 0.1,1.3 0.2,2 0.1,0.6 0.3,1.1 0.6,1.6 0.3,0.5 0.7,0.8 1.2,1.1 0.7,0.2 1.3,0.3 2.1,0.3 z"
   id="path79" />
			<path
   d="m 421.5,657.6 c 1,0 1.9,0.1 2.6,0.4 0.7,0.3 1.3,0.7 1.8,1.2 0.5,0.5 0.8,1.1 1,1.8 0.2,0.7 0.3,1.5 0.3,2.3 0,0.4 -0.1,0.8 -0.2,1 -0.1,0.3 -0.2,0.5 -0.4,0.6 -0.2,0.1 -0.4,0.3 -0.6,0.3 -0.2,0.1 -0.5,0.1 -0.7,0.1 h -7.5 c 0,0.8 0.1,1.5 0.3,2.1 0.2,0.6 0.5,1 0.9,1.4 0.4,0.4 0.8,0.6 1.3,0.8 0.5,0.2 1,0.2 1.6,0.2 0.6,0 1.1,-0.1 1.7,-0.2 0.6,-0.1 1,-0.3 1.4,-0.5 0.2,-0.1 0.4,-0.1 0.5,0.1 l 0.5,1.1 c 0.1,0.2 0.1,0.4 -0.2,0.5 -0.6,0.4 -1.3,0.6 -2,0.8 -0.7,0.1 -1.4,0.2 -2.1,0.2 -1,0 -1.9,-0.1 -2.6,-0.4 -0.8,-0.3 -1.4,-0.7 -2,-1.3 -0.5,-0.6 -0.9,-1.3 -1.2,-2.2 -0.3,-0.9 -0.4,-2 -0.4,-3.2 0,-1.2 0.2,-2.2 0.5,-3.1 0.3,-0.9 0.7,-1.7 1.3,-2.3 0.5,-0.6 1.2,-1.1 1.9,-1.4 0.6,-0.1 1.5,-0.3 2.3,-0.3 z m -0.9,-3.7 c 0,0.4 -0.1,0.7 -0.4,1 -0.3,0.3 -0.6,0.4 -1,0.4 -0.4,0 -0.7,-0.1 -1,-0.4 -0.3,-0.3 -0.4,-0.6 -0.4,-1 0,-0.3 0.1,-0.7 0.4,-1 0.3,-0.3 0.6,-0.4 1,-0.4 0.3,0 0.7,0.1 1,0.4 0.2,0.4 0.4,0.7 0.4,1 z m 4.5,9.7 c 0,-0.5 -0.1,-1.1 -0.2,-1.6 -0.1,-0.5 -0.3,-0.9 -0.6,-1.3 -0.3,-0.4 -0.6,-0.7 -1.1,-0.9 -0.5,-0.2 -1,-0.3 -1.7,-0.3 -0.6,0 -1.1,0.1 -1.5,0.3 -0.4,0.2 -0.8,0.5 -1.1,0.9 -0.3,0.4 -0.5,0.8 -0.7,1.3 -0.2,0.5 -0.3,1 -0.3,1.5 h 7.2 z m 0.2,-9.7 c 0,0.4 -0.1,0.7 -0.4,1 -0.3,0.3 -0.6,0.4 -1,0.4 -0.4,0 -0.7,-0.1 -1,-0.4 -0.3,-0.3 -0.4,-0.6 -0.4,-1 0,-0.3 0.1,-0.7 0.4,-1 0.3,-0.3 0.6,-0.4 1,-0.4 0.4,0 0.7,0.1 1,0.4 0.3,0.3 0.4,0.7 0.4,1 z"
   id="path81" />
			<path
   d="m 437.1,658.3 c 0,-0.2 0,-0.3 0.1,-0.3 0.1,-0.1 0.2,-0.1 0.3,-0.1 h 1.4 c 0.2,0 0.3,0 0.3,0.1 0.1,0.1 0.1,0.2 0.1,0.3 v 10.1 h 0.1 c 0.4,-0.7 0.8,-1.3 1.1,-1.8 0.3,-0.5 0.7,-1.1 1.2,-1.8 l 3.9,-6.1 c 0.2,-0.3 0.3,-0.5 0.5,-0.6 0.2,-0.1 0.4,-0.2 0.8,-0.2 h 0.7 c 0.3,0 0.5,0.1 0.7,0.3 0.2,0.2 0.3,0.4 0.3,0.8 v 12.3 c 0,0.2 0,0.3 -0.1,0.3 -0.1,0 -0.2,0.1 -0.3,0.1 h -1.4 c -0.1,0 -0.2,0 -0.3,-0.1 -0.1,0 -0.1,-0.1 -0.1,-0.3 v -10 h -0.2 c -0.2,0.3 -0.4,0.6 -0.6,0.9 -0.2,0.3 -0.3,0.5 -0.5,0.8 -0.2,0.3 -0.3,0.5 -0.5,0.8 -0.2,0.3 -0.4,0.6 -0.6,0.9 l -4.1,6.2 c -0.2,0.3 -0.4,0.5 -0.6,0.6 -0.2,0.1 -0.4,0.2 -0.7,0.2 H 438 c -0.3,0 -0.6,-0.1 -0.8,-0.2 -0.2,-0.2 -0.3,-0.4 -0.3,-0.8 v -12.4 z"
   id="path83" />
			<path
   d="m 459.2,664.4 c 0.8,0.2 1.5,0.6 1.9,1.2 0.5,0.6 0.7,1.2 0.7,2 0,0.6 -0.1,1.2 -0.4,1.7 -0.2,0.5 -0.6,1 -1.1,1.4 -0.5,0.4 -1.1,0.7 -1.8,0.9 -0.7,0.2 -1.5,0.3 -2.4,0.3 -0.9,0 -1.7,-0.1 -2.7,-0.2 -0.9,-0.1 -1.7,-0.4 -2.4,-0.7 -0.2,-0.1 -0.3,-0.3 -0.2,-0.5 l 0.6,-1.2 c 0.1,-0.1 0.1,-0.2 0.2,-0.1 0.1,0.1 0.2,0 0.3,0.1 0.4,0.2 1,0.4 1.7,0.5 0.7,0.2 1.4,0.3 2.1,0.3 1.3,0 2.3,-0.2 2.9,-0.7 0.6,-0.5 0.9,-1.1 0.9,-1.8 0,-0.7 -0.3,-1.2 -0.9,-1.6 -0.6,-0.4 -1.6,-0.6 -3.1,-0.6 -0.3,0 -0.5,0 -0.7,-0.1 -0.1,-0.1 -0.2,-0.3 -0.2,-0.5 v -0.4 c 0,-0.5 0.3,-0.7 0.8,-0.7 2.4,-0.1 3.6,-0.7 3.6,-2 0,-0.6 -0.3,-1 -0.8,-1.4 -0.5,-0.3 -1.3,-0.5 -2.2,-0.5 -0.6,0 -1.2,0.1 -1.9,0.2 -0.7,0.1 -1.2,0.3 -1.7,0.5 -0.1,0 -0.2,0.1 -0.3,0.1 -0.1,0 -0.2,-0.1 -0.2,-0.2 l -0.5,-1.1 c -0.1,-0.2 0,-0.3 0.2,-0.4 0.6,-0.3 1.3,-0.6 2.1,-0.8 0.8,-0.2 1.6,-0.3 2.5,-0.3 1.5,0 2.7,0.3 3.6,0.9 0.9,0.6 1.4,1.5 1.4,2.7 0,0.7 -0.2,1.3 -0.6,1.8 -0.2,0.4 -0.7,0.8 -1.4,1.2 z"
   id="path85" />
			<path
   d="m 483.3,664.7 c 0,2.3 -0.5,4.1 -1.6,5.4 -1.1,1.2 -2.6,1.9 -4.6,1.9 -2,0 -3.5,-0.6 -4.5,-1.8 -1,-1.2 -1.5,-3 -1.5,-5.3 0,-1.2 0.2,-2.2 0.5,-3.1 0.3,-0.9 0.7,-1.6 1.3,-2.2 0.5,-0.6 1.2,-1.1 1.9,-1.4 0.7,-0.3 1.6,-0.5 2.4,-0.5 2,0 3.5,0.6 4.5,1.9 1.1,1.2 1.6,2.9 1.6,5.1 z m -2.3,0.1 c 0,-0.7 -0.1,-1.3 -0.2,-2 -0.1,-0.6 -0.3,-1.2 -0.6,-1.7 -0.3,-0.5 -0.7,-0.9 -1.2,-1.2 -0.5,-0.3 -1.1,-0.4 -1.9,-0.4 -0.7,0 -1.2,0.1 -1.7,0.4 -0.5,0.3 -0.9,0.7 -1.2,1.1 -0.3,0.5 -0.5,1 -0.7,1.6 -0.2,0.6 -0.2,1.3 -0.2,2 0,0.8 0.1,1.5 0.2,2.2 0.1,0.7 0.3,1.2 0.6,1.7 0.3,0.5 0.7,0.8 1.2,1.1 0.5,0.3 1.1,0.4 1.8,0.4 0.7,0 1.3,-0.1 1.8,-0.4 0.5,-0.3 0.9,-0.7 1.2,-1.2 0.3,-0.5 0.5,-1 0.6,-1.7 0.3,-0.6 0.3,-1.2 0.3,-1.9 z"
   id="path87" />
			<path
   d="m 486.2,669.8 c 0.4,-0.5 0.8,-1.1 1,-1.7 0.2,-0.6 0.4,-1.5 0.5,-2.5 l 1,-6.4 c 0.1,-0.5 0.2,-0.8 0.5,-1 0.3,-0.2 0.6,-0.3 1.2,-0.3 h 6.5 c 0.6,0 0.9,0.1 1.1,0.4 0.1,0.2 0.2,0.5 0.2,0.9 v 10.6 l 0.8,0.1 c 0.4,0 0.6,0.2 0.7,0.4 0.1,0.2 0.1,0.4 0.1,0.5 l -0.3,4.6 c 0,0.2 -0.1,0.3 -0.3,0.3 h -1.4 c -0.2,0 -0.2,-0.1 -0.3,-0.3 l -0.2,-3.7 h -9.9 l -0.3,3.8 c 0,0.1 0,0.2 -0.1,0.2 -0.1,0 -0.1,0.1 -0.2,0.1 h -1.4 c -0.1,0 -0.1,0 -0.2,-0.1 0,0 -0.1,-0.1 -0.1,-0.3 l -0.3,-4.7 c 0,-0.2 0,-0.4 0.1,-0.6 0.1,-0.2 0.3,-0.3 0.7,-0.3 z m 9.5,-9.9 h -5.1 l -0.6,4.3 c -0.1,0.9 -0.3,1.7 -0.4,2.3 -0.1,0.6 -0.2,1.1 -0.3,1.5 -0.1,0.4 -0.2,0.7 -0.3,1 -0.1,0.3 -0.3,0.5 -0.4,0.7 h 7.1 z"
   id="path89" />
			<path
   d="m 504.3,671.6 c -0.1,0.1 -0.2,0.1 -0.4,0.1 h -1.3 c -0.2,0 -0.3,0 -0.4,-0.1 -0.1,-0.1 -0.1,-0.2 -0.1,-0.4 v -12.8 c 0,-0.2 0,-0.3 0.1,-0.4 0.1,-0.1 0.2,-0.1 0.4,-0.1 h 1.3 c 0.2,0 0.3,0 0.4,0.1 0.1,0.1 0.1,0.2 0.1,0.4 v 4.9 h 6.8 v -4.9 c 0,-0.2 0,-0.3 0.1,-0.4 0.1,-0.1 0.2,-0.1 0.4,-0.1 h 1.3 c 0.2,0 0.3,0 0.4,0.1 0.1,0.1 0.1,0.2 0.1,0.4 v 12.8 c 0,0.2 0,0.3 -0.1,0.4 -0.1,0.1 -0.2,0.1 -0.4,0.1 h -1.3 c -0.2,0 -0.3,0 -0.4,-0.1 -0.1,-0.1 -0.1,-0.2 -0.1,-0.4 v -5.9 h -6.8 v 5.9 c 0,0.2 0,0.3 -0.1,0.4 z"
   id="path91" />
			<path
   d="m 516.9,658.3 c 0,-0.2 0,-0.3 0.1,-0.3 0.1,-0.1 0.2,-0.1 0.3,-0.1 h 1.4 c 0.2,0 0.3,0 0.3,0.1 0.1,0.1 0.1,0.2 0.1,0.3 v 10.1 h 0.1 c 0.4,-0.7 0.8,-1.3 1.1,-1.8 0.3,-0.5 0.7,-1.1 1.2,-1.8 l 3.9,-6.1 c 0.2,-0.3 0.3,-0.5 0.5,-0.6 0.2,-0.1 0.4,-0.2 0.8,-0.2 h 0.7 c 0.3,0 0.5,0.1 0.7,0.3 0.2,0.2 0.3,0.4 0.3,0.8 v 12.3 c 0,0.2 0,0.3 -0.1,0.3 -0.1,0 -0.2,0.1 -0.3,0.1 h -1.4 c -0.1,0 -0.2,0 -0.3,-0.1 -0.1,0 -0.1,-0.1 -0.1,-0.3 v -10 H 526 c -0.2,0.3 -0.4,0.6 -0.6,0.9 -0.2,0.3 -0.3,0.5 -0.5,0.8 -0.2,0.3 -0.3,0.5 -0.5,0.8 -0.2,0.3 -0.4,0.6 -0.6,0.9 l -4.1,6.2 c -0.2,0.3 -0.4,0.5 -0.6,0.6 -0.2,0.1 -0.4,0.2 -0.7,0.2 h -0.6 c -0.3,0 -0.6,-0.1 -0.8,-0.2 -0.2,-0.2 -0.3,-0.4 -0.3,-0.8 v -12.4 z"
   id="path93" />
			<path
   d="m 537.6,664.3 4.6,7 c 0,0.1 0.1,0.1 0.1,0.2 0,0.1 -0.1,0.1 -0.2,0.1 h -1.9 c -0.2,0 -0.3,0 -0.4,-0.1 -0.1,-0.1 -0.1,-0.1 -0.2,-0.2 l -3.3,-5.3 -3.3,5.3 c -0.1,0.1 -0.1,0.2 -0.2,0.2 -0.1,0.1 -0.2,0.1 -0.4,0.1 h -1.7 c -0.3,0 -0.3,-0.1 -0.2,-0.4 l 4.6,-6.9 -3.9,-6.1 c -0.1,-0.1 -0.1,-0.2 -0.1,-0.2 0,-0.1 0.1,-0.1 0.2,-0.1 h 1.8 c 0.2,0 0.3,0 0.4,0.1 0.1,0.1 0.1,0.1 0.2,0.2 l 2.8,4.5 2.8,-4.5 c 0.1,-0.1 0.1,-0.2 0.2,-0.2 0.1,-0.1 0.2,-0.1 0.3,-0.1 h 1.7 c 0.2,0 0.2,0 0.2,0.1 0,0.1 0,0.2 0,0.2 z"
   id="path95" />
			<path
   d="m 563,664.8 c 0,1 -0.1,1.9 -0.4,2.8 -0.3,0.9 -0.6,1.6 -1.1,2.3 -0.5,0.7 -1.1,1.2 -1.9,1.5 -0.8,0.4 -1.7,0.6 -2.7,0.6 -0.5,0 -1,0 -1.6,-0.1 -0.6,-0.1 -1.2,-0.2 -1.8,-0.4 v 5.1 c 0,0.2 0,0.3 -0.1,0.3 -0.1,0 -0.2,0.1 -0.3,0.1 h -1.5 c -0.1,0 -0.2,0 -0.3,-0.1 -0.1,0 -0.1,-0.1 -0.1,-0.3 V 659 c 0,-0.2 0.1,-0.4 0.3,-0.4 0.9,-0.4 1.8,-0.6 2.7,-0.8 0.9,-0.1 1.8,-0.2 2.6,-0.2 1,0 2,0.2 2.7,0.5 0.8,0.4 1.4,0.9 1.9,1.5 0.5,0.6 0.9,1.4 1.1,2.3 0.4,0.9 0.5,1.8 0.5,2.9 z m -2.4,0 c 0,-1 -0.1,-1.8 -0.3,-2.4 -0.2,-0.7 -0.5,-1.2 -0.8,-1.6 -0.4,-0.4 -0.8,-0.7 -1.3,-0.9 -0.5,-0.2 -1.1,-0.3 -1.7,-0.3 -0.5,0 -1,0 -1.5,0.1 -0.6,0.1 -1.1,0.2 -1.5,0.4 v 9.4 c 0.7,0.2 1.2,0.3 1.7,0.4 0.5,0.1 0.9,0.1 1.3,0.1 0.6,0 1.1,-0.1 1.6,-0.3 0.5,-0.2 0.9,-0.5 1.3,-0.9 0.4,-0.4 0.6,-0.9 0.8,-1.6 0.3,-0.7 0.4,-1.5 0.4,-2.4 z"
   id="path97" />
			<path
   d="m 571.4,673.9 c -0.4,1.2 -0.9,2 -1.5,2.5 -0.6,0.5 -1.4,0.7 -2.4,0.7 -0.2,0 -0.5,0 -0.9,-0.1 -0.4,0 -0.8,-0.1 -1.2,-0.2 -0.3,-0.1 -0.4,-0.2 -0.3,-0.4 l 0.3,-1.2 c 0,-0.1 0.1,-0.2 0.2,-0.2 0.1,0 0.2,0 0.3,0 0.3,0.1 0.6,0.1 0.7,0.2 0.2,0 0.4,0 0.6,0 0.6,0 1.1,-0.1 1.4,-0.4 0.4,-0.2 0.7,-0.7 0.9,-1.4 0,-0.1 0.1,-0.2 0.1,-0.4 0.1,-0.2 0.1,-0.4 0.2,-0.6 0.1,-0.2 0.1,-0.4 0.2,-0.6 0.1,-0.2 0.1,-0.3 0.1,-0.4 h -0.5 c -0.2,0 -0.5,0 -0.6,-0.1 -0.2,-0.1 -0.3,-0.3 -0.5,-0.8 l -4,-12.4 c -0.1,-0.2 0,-0.3 0.2,-0.3 h 1.8 c 0.2,0 0.3,0.1 0.4,0.3 0,0.1 0.1,0.4 0.2,0.7 0.1,0.4 0.2,0.8 0.4,1.3 0.2,0.5 0.3,1 0.5,1.5 0.2,0.5 0.3,1.1 0.5,1.5 0.2,0.5 0.3,0.9 0.4,1.3 0.1,0.4 0.2,0.6 0.2,0.7 l 1.3,4.6 h 0.2 c 0.1,-0.1 0.2,-0.5 0.3,-0.9 0.2,-0.5 0.3,-1 0.5,-1.6 0.2,-0.5 0.3,-1 0.5,-1.5 0.1,-0.4 0.2,-0.7 0.2,-0.7 0,0 0.1,-0.2 0.2,-0.5 0.1,-0.3 0.2,-0.6 0.4,-1.1 0.1,-0.4 0.3,-0.9 0.5,-1.4 0.2,-0.5 0.3,-1 0.5,-1.5 0.2,-0.5 0.3,-1 0.5,-1.4 0.1,-0.4 0.3,-0.8 0.4,-1 0.1,-0.2 0.2,-0.3 0.4,-0.3 h 1.7 c 0.2,0 0.3,0.1 0.2,0.3 z"
   id="path99" />
			<path
   d="m 580.8,671.6 c -0.1,0 -0.2,0.1 -0.3,0.1 h -1.4 c -0.1,0 -0.2,0 -0.3,-0.1 -0.1,0 -0.1,-0.2 -0.1,-0.3 v -12.9 c 0,-0.2 0,-0.3 0.1,-0.3 0.1,0 0.2,-0.1 0.3,-0.1 h 1.4 c 0.2,0 0.3,0 0.3,0.1 0.1,0 0.1,0.2 0.1,0.3 v 5.1 h 2.2 c 0.3,0 0.5,0 0.8,-0.1 0.2,0 0.5,-0.1 0.7,-0.3 0.2,-0.1 0.4,-0.3 0.6,-0.6 0.2,-0.2 0.3,-0.6 0.5,-1 l 1,-3.3 c 0,-0.1 0.1,-0.2 0.2,-0.3 0.1,0 0.2,-0.1 0.2,-0.1 h 1.4 c 0.1,0 0.2,0 0.3,0.1 0.1,0.1 0,0.2 0,0.3 l -1,3.4 c -0.1,0.6 -0.3,1 -0.6,1.5 -0.3,0.4 -0.6,0.7 -1.1,1 v 0.1 c 0.7,0.2 1.2,0.5 1.4,1 0.3,0.4 0.5,0.9 0.7,1.5 l 1.3,4.5 c 0,0.1 0,0.2 0,0.3 0,0.1 -0.1,0.2 -0.3,0.2 h -1.5 c -0.1,0 -0.1,0 -0.2,0 -0.1,0 -0.1,-0.1 -0.2,-0.2 L 586,667 c -0.2,-0.7 -0.5,-1.1 -1,-1.4 -0.5,-0.3 -1,-0.4 -1.5,-0.4 H 581 v 6 c -0.1,0.2 -0.1,0.3 -0.2,0.4 z"
   id="path101" />
		</g>
	</g>
</g>
</svg>
